<svg width="100" height="100" viewBox="0 0 100 100" fill="none" xmlns="http://www.w3.org/2000/svg">
<rect width="100" height="100" rx="50" fill="#F7F7F7"/>
<path fill-rule="evenodd" clip-rule="evenodd" d="M44.0041 30.7036C44.2621 45.4847 50.5145 57.3616 57.9692 57.2315C59.2308 57.2095 60.4461 56.845 61.5932 56.1828L61.7644 65.9933L38.7679 66.3947L38 22.4014L44.5363 22.2873C44.1419 24.9381 43.9528 27.7678 44.0041 30.7036Z" fill="#0A1E39"/>
<g filter="url(#filter0_d_601_82)">
<path d="M29.4446 71.4545V78H28.6903V71.4545H29.4446ZM32.8204 78.1023C32.3772 78.1023 31.9884 77.9968 31.6539 77.7859C31.3215 77.5749 31.0615 77.2798 30.874 76.9006C30.6887 76.5213 30.596 76.0781 30.596 75.571C30.596 75.0597 30.6887 74.6133 30.874 74.2319C31.0615 73.8505 31.3215 73.5543 31.6539 73.3434C31.9884 73.1325 32.3772 73.027 32.8204 73.027C33.2636 73.027 33.6514 73.1325 33.9838 73.3434C34.3183 73.5543 34.5782 73.8505 34.7636 74.2319C34.9511 74.6133 35.0448 75.0597 35.0448 75.571C35.0448 76.0781 34.9511 76.5213 34.7636 76.9006C34.5782 77.2798 34.3183 77.5749 33.9838 77.7859C33.6514 77.9968 33.2636 78.1023 32.8204 78.1023ZM32.8204 77.4247C33.157 77.4247 33.434 77.3384 33.6514 77.1658C33.8687 76.9933 34.0296 76.7663 34.134 76.4851C34.2384 76.2038 34.2906 75.8991 34.2906 75.571C34.2906 75.2429 34.2384 74.9371 34.134 74.6538C34.0296 74.3704 33.8687 74.1413 33.6514 73.9666C33.434 73.7919 33.157 73.7045 32.8204 73.7045C32.4838 73.7045 32.2068 73.7919 31.9894 73.9666C31.7721 74.1413 31.6112 74.3704 31.5068 74.6538C31.4024 74.9371 31.3502 75.2429 31.3502 75.571C31.3502 75.8991 31.4024 76.2038 31.5068 76.4851C31.6112 76.7663 31.7721 76.9933 31.9894 77.1658C32.2068 77.3384 32.4838 77.4247 32.8204 77.4247ZM38.1777 79.9432C37.8134 79.9432 37.5002 79.8963 37.2381 79.8026C36.976 79.7109 36.7576 79.5895 36.5829 79.4382C36.4103 79.2891 36.2729 79.1293 36.1706 78.9588L36.7715 78.5369C36.8397 78.6264 36.926 78.7287 37.0304 78.8438C37.1348 78.9609 37.2775 79.0621 37.4586 79.1474C37.6419 79.2347 37.8816 79.2784 38.1777 79.2784C38.574 79.2784 38.9011 79.1825 39.1589 78.9908C39.4167 78.799 39.5456 78.4986 39.5456 78.0895V77.0923H39.4817C39.4263 77.1818 39.3475 77.2926 39.2452 77.4247C39.1451 77.5547 39.0002 77.6708 38.8105 77.7731C38.623 77.8732 38.3695 77.9233 38.0499 77.9233C37.6536 77.9233 37.2978 77.8295 36.9824 77.642C36.6692 77.4545 36.421 77.1818 36.2377 76.8239C36.0566 76.4659 35.9661 76.0312 35.9661 75.5199C35.9661 75.017 36.0545 74.5792 36.2314 74.2063C36.4082 73.8313 36.6543 73.5415 36.9696 73.337C37.285 73.1303 37.6493 73.027 38.0627 73.027C38.3823 73.027 38.6358 73.0803 38.8233 73.1868C39.013 73.2912 39.1578 73.4105 39.258 73.5447C39.3603 73.6768 39.4391 73.7855 39.4945 73.8707H39.5712V73.0909H40.2999V78.1406C40.2999 78.5625 40.204 78.9055 40.0123 79.1697C39.8226 79.4361 39.5669 79.631 39.2452 79.7546C38.9256 79.8803 38.5698 79.9432 38.1777 79.9432ZM38.1522 77.2457C38.4547 77.2457 38.7104 77.1765 38.9192 77.038C39.128 76.8995 39.2868 76.7003 39.3954 76.4403C39.5041 76.1804 39.5584 75.8693 39.5584 75.5071C39.5584 75.1534 39.5051 74.8413 39.3986 74.5707C39.2921 74.3001 39.1344 74.0881 38.9256 73.9347C38.7168 73.7812 38.459 73.7045 38.1522 73.7045C37.8326 73.7045 37.5662 73.7855 37.3532 73.9474C37.1422 74.1094 36.9835 74.3267 36.877 74.5994C36.7725 74.8722 36.7203 75.1747 36.7203 75.5071C36.7203 75.848 36.7736 76.1495 36.8801 76.4116C36.9888 76.6715 37.1486 76.8761 37.3596 77.0252C37.5726 77.1722 37.8368 77.2457 38.1522 77.2457ZM43.6749 78.1023C43.2317 78.1023 42.8429 77.9968 42.5083 77.7859C42.176 77.5749 41.916 77.2798 41.7285 76.9006C41.5431 76.5213 41.4505 76.0781 41.4505 75.571C41.4505 75.0597 41.5431 74.6133 41.7285 74.2319C41.916 73.8505 42.176 73.5543 42.5083 73.3434C42.8429 73.1325 43.2317 73.027 43.6749 73.027C44.1181 73.027 44.5059 73.1325 44.8382 73.3434C45.1728 73.5543 45.4327 73.8505 45.6181 74.2319C45.8056 74.6133 45.8993 75.0597 45.8993 75.571C45.8993 76.0781 45.8056 76.5213 45.6181 76.9006C45.4327 77.2798 45.1728 77.5749 44.8382 77.7859C44.5059 77.9968 44.1181 78.1023 43.6749 78.1023ZM43.6749 77.4247C44.0115 77.4247 44.2885 77.3384 44.5059 77.1658C44.7232 76.9933 44.8841 76.7663 44.9885 76.4851C45.0929 76.2038 45.1451 75.8991 45.1451 75.571C45.1451 75.2429 45.0929 74.9371 44.9885 74.6538C44.8841 74.3704 44.7232 74.1413 44.5059 73.9666C44.2885 73.7919 44.0115 73.7045 43.6749 73.7045C43.3382 73.7045 43.0613 73.7919 42.8439 73.9666C42.6266 74.1413 42.4657 74.3704 42.3613 74.6538C42.2569 74.9371 42.2047 75.2429 42.2047 75.571C42.2047 75.8991 42.2569 76.2038 42.3613 76.4851C42.4657 76.7663 42.6266 76.9933 42.8439 77.1658C43.0613 77.3384 43.3382 77.4247 43.6749 77.4247ZM49.5819 79.8409V73.0909H50.3106V73.8707H50.4001C50.4555 73.7855 50.5322 73.6768 50.6302 73.5447C50.7304 73.4105 50.8731 73.2912 51.0585 73.1868C51.246 73.0803 51.4996 73.027 51.8192 73.027C52.2325 73.027 52.5969 73.1303 52.9122 73.337C53.2275 73.5437 53.4736 73.8366 53.6505 74.2159C53.8273 74.5952 53.9157 75.0426 53.9157 75.5582C53.9157 76.0781 53.8273 76.5288 53.6505 76.9102C53.4736 77.2894 53.2286 77.5835 52.9154 77.7923C52.6022 77.9989 52.241 78.1023 51.8319 78.1023C51.5166 78.1023 51.2641 78.0501 51.0745 77.9457C50.8849 77.8391 50.7389 77.7187 50.6366 77.5845C50.5344 77.4482 50.4555 77.3352 50.4001 77.2457H50.3362V79.8409H49.5819ZM50.3234 75.5455C50.3234 75.9162 50.3778 76.2433 50.4864 76.5266C50.5951 76.8079 50.7538 77.0284 50.9626 77.1882C51.1714 77.3459 51.4271 77.4247 51.7297 77.4247C52.045 77.4247 52.3082 77.3416 52.5191 77.1754C52.7322 77.0071 52.892 76.7812 52.9985 76.4979C53.1072 76.2124 53.1615 75.8949 53.1615 75.5455C53.1615 75.2003 53.1082 74.8892 53.0017 74.6122C52.8973 74.3331 52.7385 74.1126 52.5255 73.9506C52.3145 73.7866 52.0493 73.7045 51.7297 73.7045C51.4229 73.7045 51.165 73.7823 50.9562 73.9379C50.7474 74.0913 50.5898 74.3065 50.4832 74.5835C50.3767 74.8583 50.3234 75.179 50.3234 75.5455ZM55.0663 78V73.0909H55.795V73.8324H55.8461C55.9356 73.5895 56.0976 73.3924 56.3319 73.2411C56.5663 73.0898 56.8305 73.0142 57.1246 73.0142C57.18 73.0142 57.2492 73.0153 57.3323 73.0174C57.4154 73.0195 57.4782 73.0227 57.5209 73.027V73.794C57.4953 73.7876 57.4367 73.7781 57.3451 73.7653C57.2556 73.7504 57.1608 73.7429 57.0606 73.7429C56.822 73.7429 56.6089 73.793 56.4214 73.8931C56.2361 73.9911 56.089 74.1275 55.9804 74.3022C55.8738 74.4748 55.8206 74.6719 55.8206 74.8935V78H55.0663ZM60.2599 78.1023C59.8167 78.1023 59.4278 77.9968 59.0933 77.7859C58.7609 77.5749 58.501 77.2798 58.3135 76.9006C58.1281 76.5213 58.0354 76.0781 58.0354 75.571C58.0354 75.0597 58.1281 74.6133 58.3135 74.2319C58.501 73.8505 58.7609 73.5543 59.0933 73.3434C59.4278 73.1325 59.8167 73.027 60.2599 73.027C60.703 73.027 61.0908 73.1325 61.4232 73.3434C61.7577 73.5543 62.0177 73.8505 62.203 74.2319C62.3905 74.6133 62.4843 75.0597 62.4843 75.571C62.4843 76.0781 62.3905 76.5213 62.203 76.9006C62.0177 77.2798 61.7577 77.5749 61.4232 77.7859C61.0908 77.9968 60.703 78.1023 60.2599 78.1023ZM60.2599 77.4247C60.5965 77.4247 60.8735 77.3384 61.0908 77.1658C61.3081 76.9933 61.469 76.7663 61.5734 76.4851C61.6778 76.2038 61.73 75.8991 61.73 75.571C61.73 75.2429 61.6778 74.9371 61.5734 74.6538C61.469 74.3704 61.3081 74.1413 61.0908 73.9666C60.8735 73.7919 60.5965 73.7045 60.2599 73.7045C59.9232 73.7045 59.6462 73.7919 59.4289 73.9666C59.2116 74.1413 59.0507 74.3704 58.9463 74.6538C58.8419 74.9371 58.7897 75.2429 58.7897 75.571C58.7897 75.8991 58.8419 76.2038 58.9463 76.4851C59.0507 76.7663 59.2116 76.9933 59.4289 77.1658C59.6462 77.3384 59.9232 77.4247 60.2599 77.4247ZM63.6357 73.0909H64.3899V78.358C64.3899 78.6605 64.3377 78.9226 64.2333 79.1442C64.131 79.3658 63.9755 79.5373 63.7667 79.6587C63.56 79.7802 63.299 79.8409 62.9837 79.8409C62.9581 79.8409 62.9325 79.8409 62.907 79.8409C62.8814 79.8409 62.8558 79.8409 62.8303 79.8409V79.1378C62.8558 79.1378 62.8793 79.1378 62.9006 79.1378C62.9219 79.1378 62.9453 79.1378 62.9709 79.1378C63.201 79.1378 63.3693 79.0696 63.4759 78.9332C63.5824 78.799 63.6357 78.6072 63.6357 78.358V73.0909ZM64.0064 72.2727C63.8594 72.2727 63.7326 72.2227 63.6261 72.1225C63.5217 72.0224 63.4695 71.902 63.4695 71.7614C63.4695 71.6207 63.5217 71.5004 63.6261 71.4002C63.7326 71.3001 63.8594 71.25 64.0064 71.25C64.1534 71.25 64.2791 71.3001 64.3835 71.4002C64.4901 71.5004 64.5433 71.6207 64.5433 71.7614C64.5433 71.902 64.4901 72.0224 64.3835 72.1225C64.2791 72.2227 64.1534 72.2727 64.0064 72.2727ZM67.8296 78.1023C67.3566 78.1023 66.9486 77.9979 66.6056 77.7891C66.2646 77.5781 66.0015 77.2841 65.8161 76.907C65.6329 76.5277 65.5413 76.0866 65.5413 75.5838C65.5413 75.081 65.6329 74.6378 65.8161 74.2543C66.0015 73.8686 66.2593 73.5682 66.5896 73.353C66.922 73.1357 67.3097 73.027 67.7529 73.027C68.0086 73.027 68.2611 73.0696 68.5104 73.1548C68.7597 73.2401 68.9866 73.3786 69.1911 73.5703C69.3957 73.7599 69.5587 74.0114 69.6801 74.3246C69.8016 74.6378 69.8623 75.0234 69.8623 75.4815V75.8011H66.0782V75.1491H69.0953C69.0953 74.8722 69.0399 74.625 68.9291 74.4077C68.8204 74.1903 68.6649 74.0188 68.4624 73.8931C68.2622 73.7674 68.0257 73.7045 67.7529 73.7045C67.4525 73.7045 67.1926 73.7791 66.9731 73.9283C66.7558 74.0753 66.5885 74.267 66.4713 74.5036C66.3541 74.7401 66.2955 74.9936 66.2955 75.2642V75.6989C66.2955 76.0696 66.3595 76.3839 66.4873 76.6417C66.6173 76.8974 66.7973 77.0923 67.0274 77.2266C67.2575 77.3587 67.5249 77.4247 67.8296 77.4247C68.0278 77.4247 68.2068 77.397 68.3666 77.3416C68.5285 77.2841 68.6681 77.1989 68.7852 77.0859C68.9024 76.9709 68.993 76.8281 69.0569 76.6577L69.7856 76.8622C69.7089 77.1094 69.58 77.3267 69.3989 77.5142C69.2178 77.6996 68.9941 77.8445 68.7277 77.9489C68.4614 78.0511 68.162 78.1023 67.8296 78.1023ZM73.004 78.1023C72.5438 78.1023 72.1475 77.9936 71.8151 77.7763C71.4827 77.5589 71.227 77.2596 71.048 76.8782C70.8691 76.4968 70.7796 76.0611 70.7796 75.571C70.7796 75.0724 70.8712 74.6325 71.0544 74.2511C71.2398 73.8675 71.4976 73.5682 71.8279 73.353C72.1602 73.1357 72.548 73.027 72.9912 73.027C73.3364 73.027 73.6475 73.0909 73.9244 73.2188C74.2014 73.3466 74.4284 73.5256 74.6052 73.7557C74.782 73.9858 74.8918 74.2543 74.9344 74.5611H74.1801C74.1226 74.3374 73.9948 74.1392 73.7966 73.9666C73.6006 73.7919 73.3364 73.7045 73.004 73.7045C72.71 73.7045 72.4521 73.7812 72.2306 73.9347C72.0111 74.0859 71.8396 74.3001 71.716 74.5771C71.5945 74.8519 71.5338 75.1747 71.5338 75.5455C71.5338 75.9247 71.5935 76.255 71.7128 76.5362C71.8343 76.8175 72.0047 77.0359 72.2242 77.1914C72.4458 77.3469 72.7057 77.4247 73.004 77.4247C73.2 77.4247 73.3779 77.3906 73.5377 77.3224C73.6975 77.2543 73.8328 77.1562 73.9436 77.0284C74.0544 76.9006 74.1333 76.7472 74.1801 76.5682H74.9344C74.8918 76.858 74.7863 77.119 74.618 77.3512C74.4518 77.5813 74.2313 77.7646 73.9564 77.9009C73.6837 78.0352 73.3662 78.1023 73.004 78.1023ZM78.172 73.0909V73.7301H75.6279V73.0909H78.172ZM76.3694 71.9148H77.1237V76.5938C77.1237 76.8068 77.1546 76.9666 77.2164 77.0732C77.2803 77.1776 77.3612 77.2479 77.4593 77.2841C77.5594 77.3182 77.6649 77.3352 77.7757 77.3352C77.8588 77.3352 77.9269 77.331 77.9802 77.3224C78.0335 77.3118 78.0761 77.3033 78.108 77.2969L78.2615 77.9744C78.2103 77.9936 78.1389 78.0128 78.0473 78.032C77.9557 78.0533 77.8396 78.0639 77.699 78.0639C77.4859 78.0639 77.2771 78.0181 77.0725 77.9265C76.8701 77.8349 76.7018 77.6953 76.5676 77.5078C76.4355 77.3203 76.3694 77.0838 76.3694 76.7983V71.9148Z" fill="#3E3C3C"/>
</g>
<defs>
<filter id="filter0_d_601_82" x="24.6904" y="71.25" width="57.5711" height="16.6932" filterUnits="userSpaceOnUse" color-interpolation-filters="sRGB">
<feFlood flood-opacity="0" result="BackgroundImageFix"/>
<feColorMatrix in="SourceAlpha" type="matrix" values="0 0 0 0 0 0 0 0 0 0 0 0 0 0 0 0 0 0 127 0" result="hardAlpha"/>
<feOffset dy="4"/>
<feGaussianBlur stdDeviation="2"/>
<feComposite in2="hardAlpha" operator="out"/>
<feColorMatrix type="matrix" values="0 0 0 0 0 0 0 0 0 0 0 0 0 0 0 0 0 0 0.25 0"/>
<feBlend mode="normal" in2="BackgroundImageFix" result="effect1_dropShadow_601_82"/>
<feBlend mode="normal" in="SourceGraphic" in2="effect1_dropShadow_601_82" result="shape"/>
</filter>
</defs>
</svg>
